<?xml version="1.0" encoding="UTF-8" standalone="no"?>
<svg width="271px" height="66px" viewBox="0 0 271 66" version="1.1" xmlns="http://www.w3.org/2000/svg" xmlns:xlink="http://www.w3.org/1999/xlink">
    <!-- Generator: Sketch 44.1 (41455) - http://www.bohemiancoding.com/sketch -->
    <title>Group</title>
    <desc>Created with Sketch.</desc>
    <defs></defs>
    <g id="Page-1" stroke="none" stroke-width="1" fill="none" fill-rule="evenodd">
        <g id="Africamuseum-H-Black" fill="#1A1918">
            <g id="Group">
                <path d="M101.742,16.414 C104.436,16.414 106.625,14.226 106.625,11.538 C106.625,8.84 104.433,6.644 101.738,6.644 L86.101,6.643 L86.101,16.426 L101.742,16.414 Z M101.744,20.784 L81.731,20.799 L81.731,2.272 L101.738,2.274 C106.842,2.274 110.995,6.43 110.995,11.538 C110.995,16.636 106.845,20.784 101.744,20.784 Z M81.712,26.118 L81.712,43.638 L86.12,43.652 L86.12,30.489 L101.873,30.489 L110.256,44.827 L114.029,42.621 L104.38,26.118 L81.712,26.118 Z M154.912,40.022 C145.469,39.898 137.888,32.115 138.012,22.673 C138.136,13.231 145.893,5.658 155.36,5.772 C159.499,5.827 163.474,7.375 166.553,10.132 L169.469,6.876 C165.603,3.414 160.612,1.471 155.418,1.403 C143.544,1.248 133.797,10.764 133.642,22.616 C133.487,34.468 143.003,44.236 154.854,44.391 C154.952,44.393 155.048,44.393 155.145,44.393 C160.953,44.393 166.384,42.118 170.465,37.967 L167.349,34.903 C164.042,38.265 159.62,40.062 154.912,40.022 Z M47.931,43.652 L52.301,43.652 L52.301,30.58 L73.684,30.58 L73.684,26.21 L47.931,26.21 L47.931,43.652 Z M47.931,21.058 L73.684,21.058 L73.684,16.687 L52.301,16.687 L52.301,6.643 L75.154,6.643 L75.154,2.272 L47.931,2.272 L47.931,21.058 Z M185.948,25.047 L201.537,25.047 L193.786,10.19 L185.948,25.047 Z M208.746,29.417 L178.702,29.417 L193.807,0.783 L208.746,29.417 Z M121.81,43.607 L126.18,43.607 L126.18,2.265 L121.81,2.265 L121.81,43.607 Z M14.38,25.01 L29.969,25.01 L22.217,10.153 L14.38,25.01 Z M37.178,29.38 L7.133,29.38 L22.239,0.746 L37.178,29.38 Z M39.444,34.249 L43.935,42.644 L40.082,44.706 L36.826,38.619 L7.407,38.619 L4.201,44.705 L0.334,42.668 L4.769,34.249 L39.444,34.249 L39.444,34.249 Z" id="Fill-1"></path>
                <path d="M241.419,54.475 L244.145,54.475 L244.145,50.076 C244.145,49.785 244.164,49.507 244.2,49.24 C244.236,48.974 244.312,48.734 244.427,48.522 C244.542,48.31 244.709,48.14 244.927,48.013 C245.145,47.886 245.43,47.822 245.781,47.822 C246.096,47.822 246.336,47.895 246.499,48.04 C246.663,48.186 246.781,48.362 246.853,48.568 C246.927,48.774 246.969,48.992 246.981,49.222 C246.993,49.452 246.999,49.646 246.999,49.804 L246.999,54.475 L249.726,54.475 L249.726,49.804 C249.726,49.537 249.753,49.283 249.807,49.04 C249.862,48.798 249.953,48.585 250.08,48.404 C250.207,48.222 250.377,48.08 250.589,47.977 C250.801,47.874 251.065,47.822 251.38,47.822 C251.828,47.822 252.14,47.971 252.316,48.268 C252.491,48.565 252.58,48.919 252.58,49.331 L252.58,54.475 L255.306,54.475 L255.306,49.259 C255.306,48.725 255.254,48.225 255.151,47.759 C255.048,47.292 254.879,46.886 254.642,46.541 C254.406,46.195 254.085,45.923 253.679,45.723 C253.273,45.523 252.773,45.423 252.18,45.423 C251.525,45.423 250.974,45.544 250.526,45.786 C250.077,46.029 249.695,46.435 249.38,47.005 C249.138,46.459 248.777,46.059 248.298,45.805 C247.82,45.55 247.272,45.423 246.653,45.423 C246.327,45.423 246.024,45.466 245.745,45.55 C245.466,45.635 245.218,45.744 244.999,45.877 C244.782,46.011 244.593,46.162 244.436,46.332 C244.279,46.502 244.157,46.671 244.073,46.841 L244.036,46.841 L244.036,45.641 L241.419,45.641 L241.419,54.475 Z M239.492,45.641 L236.766,45.641 L236.766,50.04 C236.766,50.331 236.747,50.61 236.711,50.876 C236.675,51.142 236.599,51.382 236.484,51.594 C236.369,51.806 236.202,51.976 235.984,52.103 C235.766,52.23 235.481,52.294 235.13,52.294 C234.778,52.294 234.509,52.221 234.321,52.076 C234.132,51.93 233.993,51.742 233.902,51.512 C233.812,51.282 233.757,51.03 233.739,50.758 C233.721,50.485 233.712,50.222 233.712,49.967 L233.712,45.641 L230.985,45.641 L230.985,50.513 C230.985,51.107 231.024,51.658 231.103,52.167 C231.182,52.675 231.339,53.118 231.576,53.493 C231.812,53.869 232.145,54.163 232.576,54.375 C233.006,54.587 233.567,54.693 234.257,54.693 C234.584,54.693 234.887,54.651 235.166,54.566 C235.444,54.481 235.693,54.372 235.911,54.238 C236.129,54.106 236.314,53.954 236.466,53.784 C236.617,53.615 236.741,53.445 236.838,53.275 L236.875,53.275 L236.875,54.475 L239.492,54.475 L239.492,45.641 Z M223.006,49.059 C223.018,48.84 223.07,48.631 223.16,48.431 C223.251,48.231 223.379,48.056 223.542,47.904 C223.706,47.753 223.903,47.629 224.133,47.531 C224.363,47.434 224.63,47.386 224.933,47.386 C225.43,47.386 225.836,47.55 226.151,47.877 C226.466,48.204 226.617,48.598 226.605,49.059 L223.006,49.059 Z M227.005,51.549 C226.775,51.864 226.505,52.121 226.196,52.321 C225.887,52.521 225.508,52.621 225.06,52.621 C224.527,52.621 224.079,52.467 223.715,52.158 C223.351,51.849 223.115,51.433 223.006,50.913 L229.332,50.913 L229.332,50.058 C229.332,49.356 229.235,48.719 229.041,48.15 C228.847,47.58 228.571,47.092 228.214,46.686 C227.856,46.28 227.42,45.968 226.905,45.75 C226.39,45.532 225.817,45.423 225.188,45.423 C224.508,45.423 223.869,45.532 223.27,45.75 C222.67,45.968 222.149,46.28 221.706,46.686 C221.264,47.092 220.916,47.58 220.661,48.15 C220.407,48.719 220.28,49.356 220.28,50.058 C220.28,50.761 220.407,51.397 220.661,51.967 C220.916,52.536 221.264,53.024 221.706,53.43 C222.149,53.836 222.67,54.148 223.27,54.366 C223.869,54.584 224.508,54.693 225.188,54.693 C225.902,54.693 226.593,54.541 227.259,54.238 C227.926,53.936 228.477,53.506 228.913,52.948 L227.005,51.549 Z M218.807,46.586 C218.395,46.15 217.892,45.847 217.298,45.677 C216.704,45.508 216.117,45.423 215.535,45.423 C215.075,45.423 214.62,45.48 214.172,45.596 C213.724,45.711 213.327,45.889 212.981,46.132 C212.636,46.374 212.357,46.683 212.145,47.059 C211.933,47.434 211.827,47.883 211.827,48.404 C211.827,48.962 211.939,49.407 212.163,49.74 C212.387,50.073 212.673,50.331 213.018,50.513 C213.363,50.694 213.733,50.83 214.127,50.921 C214.52,51.013 214.89,51.097 215.235,51.176 C215.581,51.255 215.866,51.352 216.09,51.467 C216.314,51.582 216.426,51.755 216.426,51.985 C216.426,52.227 216.298,52.394 216.044,52.484 C215.79,52.575 215.505,52.621 215.19,52.621 C214.778,52.621 214.418,52.539 214.108,52.376 C213.799,52.212 213.518,51.973 213.263,51.658 L211.609,53.493 C212.045,53.942 212.578,54.254 213.208,54.429 C213.838,54.605 214.463,54.693 215.081,54.693 C215.553,54.693 216.032,54.648 216.517,54.557 C217.001,54.466 217.437,54.309 217.826,54.084 C218.213,53.86 218.531,53.564 218.78,53.193 C219.028,52.824 219.152,52.354 219.152,51.785 C219.152,51.228 219.04,50.782 218.816,50.449 C218.592,50.116 218.307,49.852 217.962,49.658 C217.617,49.465 217.246,49.322 216.853,49.231 C216.459,49.14 216.09,49.056 215.744,48.976 C215.399,48.898 215.114,48.807 214.89,48.704 C214.666,48.601 214.553,48.44 214.553,48.222 C214.553,47.956 214.663,47.768 214.881,47.659 C215.099,47.55 215.323,47.495 215.553,47.495 C216.208,47.495 216.735,47.743 217.135,48.24 L218.807,46.586 Z M210.21,45.641 L207.484,45.641 L207.484,50.04 C207.484,50.331 207.465,50.61 207.429,50.876 C207.393,51.142 207.316,51.382 207.202,51.594 C207.087,51.806 206.92,51.976 206.702,52.103 C206.484,52.23 206.199,52.294 205.848,52.294 C205.496,52.294 205.226,52.221 205.039,52.076 C204.85,51.93 204.711,51.742 204.62,51.512 C204.53,51.282 204.475,51.03 204.457,50.758 C204.439,50.485 204.43,50.222 204.43,49.967 L204.43,45.641 L201.703,45.641 L201.703,50.513 C201.703,51.107 201.742,51.658 201.821,52.167 C201.9,52.675 202.057,53.118 202.294,53.493 C202.53,53.869 202.863,54.163 203.294,54.375 C203.724,54.587 204.285,54.693 204.975,54.693 C205.302,54.693 205.605,54.651 205.884,54.566 C206.162,54.481 206.411,54.372 206.629,54.238 C206.847,54.106 207.032,53.954 207.184,53.784 C207.335,53.615 207.459,53.445 207.556,53.275 L207.593,53.275 L207.593,54.475 L210.21,54.475 L210.21,45.641 Z M185.889,54.475 L188.616,54.475 L188.616,50.076 C188.616,49.785 188.634,49.507 188.67,49.24 C188.706,48.974 188.782,48.734 188.897,48.522 C189.012,48.31 189.179,48.14 189.397,48.013 C189.615,47.886 189.9,47.822 190.251,47.822 C190.567,47.822 190.806,47.895 190.97,48.04 C191.133,48.186 191.251,48.362 191.324,48.568 C191.397,48.774 191.439,48.992 191.451,49.222 C191.463,49.452 191.47,49.646 191.47,49.804 L191.47,54.475 L194.196,54.475 L194.196,49.804 C194.196,49.537 194.223,49.283 194.278,49.04 C194.332,48.798 194.423,48.585 194.55,48.404 C194.678,48.222 194.847,48.08 195.059,47.977 C195.272,47.874 195.535,47.822 195.85,47.822 C196.298,47.822 196.61,47.971 196.786,48.268 C196.962,48.565 197.05,48.919 197.05,49.331 L197.05,54.475 L199.776,54.475 L199.776,49.259 C199.776,48.725 199.725,48.225 199.622,47.759 C199.519,47.292 199.349,46.886 199.113,46.541 C198.877,46.195 198.555,45.923 198.149,45.723 C197.743,45.523 197.243,45.423 196.65,45.423 C195.995,45.423 195.444,45.544 194.996,45.786 C194.547,46.029 194.166,46.435 193.85,47.005 C193.608,46.459 193.247,46.059 192.769,45.805 C192.29,45.55 191.742,45.423 191.124,45.423 C190.797,45.423 190.494,45.466 190.215,45.55 C189.936,45.635 189.688,45.744 189.47,45.877 C189.252,46.011 189.064,46.162 188.906,46.332 C188.749,46.502 188.628,46.671 188.543,46.841 L188.506,46.841 L188.506,45.641 L185.889,45.641 L185.889,54.475 Z M159.533,65.666 L176.077,34.312 L270.465,34.312 L270.465,65.666 L159.533,65.666 L159.533,65.666 Z" id="Fill-2"></path>
            </g>
        </g>
    </g>
</svg>