<?xml version="1.0" encoding="utf-8"?>
<!-- Generator: Adobe Illustrator 26.2.1, SVG Export Plug-In . SVG Version: 6.00 Build 0)  -->
<svg version="1.1" id="Logo_Darwin_Collections_Africamuseum"
	 xmlns="http://www.w3.org/2000/svg" xmlns:xlink="http://www.w3.org/1999/xlink" x="0px" y="0px" viewBox="0 0 271 66"
	 style="enable-background:new 0 0 271 66;" xml:space="preserve">
<style type="text/css">
	.st0{fill:#1D1D1B;}
	.st1{fill:#0023f9;}
	.st2{fill:#FFFFFF;}
</style>
<g>
	<path class="st0" d="M39.5,34l4.5,8.4l-3.9,2.1l-3.2-6.1H7.5l-3.2,6.1l-3.9-2l4.4-8.4L39.5,34z M37.3,29.2h-30l15-28.7L37.3,29.2z
		 M14.5,24.8h15.6L22.3,9.9L14.5,24.8z M121.9,43.4h4.4V2.1h-4.4V43.4z M208.9,29.2h-30.1l15.1-28.6L208.9,29.2z M186.1,24.8h15.6
		L193.9,10L186.1,24.8z M48.1,20.8h25.8v-4.3H52.4v-10h22.8V2.1H48L48.1,20.8z M48.1,43.4h4.3v-13h21.4V26H48L48.1,43.4z
		 M155.1,39.8c-9.5-0.1-17-7.9-16.9-17.3c0.1-9.5,7.9-17,17.3-16.9c4.1,0.1,8.1,1.6,11.2,4.4l2.9-3.3c-8.9-7.9-22.5-7.1-30.4,1.8
		S132.1,31,141,38.9c3.8,3.4,8.7,5.3,13.9,5.4h0.3c5.8,0,11.3-2.3,15.3-6.4l-3.1-3.1C164.2,38,159.7,39.9,155.1,39.8L155.1,39.8z
		 M81.9,25.9v17.5h4.4V30.3h15.8l8.4,14.3l3.8-2.2l-9.6-16.5L81.9,25.9z M101.9,20.6h-20V2.1h20c5.1-0.2,9.4,3.8,9.6,9
		s-3.8,9.4-9,9.6C102.3,20.6,102.1,20.6,101.9,20.6L101.9,20.6z M101.9,16.2c2.7,0.1,5-2,5.1-4.7s-2-5-4.7-5.1c-0.1,0-0.3,0-0.4,0
		H86.2v9.8H101.9z"/>
	<polygon class="st1" points="159.6,65.5 176.2,34.2 270.6,34.2 270.6,65.5 	"/>
	<g>
		<path class="st2" d="M201.7,45.5v4.9c0,0.6,0,1.1,0.1,1.7c0.1,0.5,0.2,1,0.5,1.3c0.2,0.4,0.6,0.7,1,0.9c0.4,0.2,1,0.3,1.7,0.3
			c0.3,0,0.6,0,0.9-0.1c0.3-0.1,0.5-0.2,0.7-0.3c0.2-0.1,0.4-0.3,0.6-0.5c0.2-0.2,0.3-0.3,0.4-0.5h0v1.2h2.6v-8.8h-2.7v4.4
			c0,0.3,0,0.6-0.1,0.8c0,0.3-0.1,0.5-0.2,0.7c-0.1,0.2-0.3,0.4-0.5,0.5s-0.5,0.2-0.9,0.2c-0.4,0-0.6-0.1-0.8-0.2
			c-0.2-0.1-0.3-0.3-0.4-0.6c-0.1-0.2-0.1-0.5-0.2-0.8c0-0.3,0-0.5,0-0.8v-4.3H201.7z"/>
		<path class="st2" d="M216.1,52.4c-0.3,0.1-0.5,0.1-0.9,0.1c-0.4,0-0.8-0.1-1.1-0.2c-0.3-0.2-0.6-0.4-0.8-0.7l-1.7,1.8
			c0.4,0.4,1,0.8,1.6,0.9c0.6,0.2,1.3,0.3,1.9,0.3c0.5,0,1,0,1.4-0.1c0.5-0.1,0.9-0.2,1.3-0.5c0.4-0.2,0.7-0.5,1-0.9
			c0.2-0.4,0.4-0.8,0.4-1.4c0-0.6-0.1-1-0.3-1.3s-0.5-0.6-0.9-0.8c-0.3-0.2-0.7-0.3-1.1-0.4c-0.4-0.1-0.8-0.2-1.1-0.3
			c-0.3-0.1-0.6-0.2-0.9-0.3c-0.2-0.1-0.3-0.3-0.3-0.5c0-0.3,0.1-0.5,0.3-0.6c0.2-0.1,0.4-0.2,0.7-0.2c0.7,0,1.2,0.2,1.6,0.7
			l1.7-1.7c-0.4-0.4-0.9-0.7-1.5-0.9c-0.6-0.2-1.2-0.3-1.8-0.3c-0.5,0-0.9,0.1-1.4,0.2c-0.4,0.1-0.8,0.3-1.2,0.5
			c-0.3,0.2-0.6,0.6-0.8,0.9c-0.2,0.4-0.3,0.8-0.3,1.3c0,0.6,0.1,1,0.3,1.3s0.5,0.6,0.9,0.8c0.3,0.2,0.7,0.3,1.1,0.4
			c0.4,0.1,0.8,0.2,1.1,0.3c0.3,0.1,0.6,0.2,0.9,0.3s0.3,0.3,0.3,0.5C216.5,52.1,216.3,52.3,216.1,52.4z"/>
		<path class="st2" d="M185.9,45.5v8.8h2.7v-4.4c0-0.3,0-0.6,0.1-0.8c0-0.3,0.1-0.5,0.2-0.7s0.3-0.4,0.5-0.5
			c0.2-0.1,0.5-0.2,0.9-0.2c0.3,0,0.6,0.1,0.7,0.2c0.2,0.1,0.3,0.3,0.4,0.5c0.1,0.2,0.1,0.4,0.1,0.7c0,0.2,0,0.4,0,0.6v4.7h2.7v-4.7
			c0-0.3,0-0.5,0.1-0.8c0.1-0.2,0.1-0.5,0.3-0.6c0.1-0.2,0.3-0.3,0.5-0.4c0.2-0.1,0.5-0.2,0.8-0.2c0.4,0,0.8,0.1,0.9,0.4
			c0.2,0.3,0.3,0.7,0.3,1.1v5.1h2.7v-5.2c0-0.5-0.1-1-0.2-1.5c-0.1-0.5-0.3-0.9-0.5-1.2c-0.2-0.3-0.6-0.6-1-0.8s-0.9-0.3-1.5-0.3
			c-0.7,0-1.2,0.1-1.7,0.4c-0.4,0.2-0.8,0.6-1.1,1.2c-0.2-0.5-0.6-0.9-1.1-1.2c-0.5-0.3-1-0.4-1.6-0.4c-0.3,0-0.6,0-0.9,0.1
			c-0.3,0.1-0.5,0.2-0.7,0.3c-0.2,0.1-0.4,0.3-0.6,0.5c-0.2,0.2-0.3,0.3-0.4,0.5h0v-1.2H185.9z"/>
		<path class="st2" d="M241.5,45.5v8.8h2.7v-4.4c0-0.3,0-0.6,0.1-0.8c0-0.3,0.1-0.5,0.2-0.7c0.1-0.2,0.3-0.4,0.5-0.5
			c0.2-0.1,0.5-0.2,0.9-0.2c0.3,0,0.6,0.1,0.7,0.2c0.2,0.1,0.3,0.3,0.4,0.5c0.1,0.2,0.1,0.4,0.1,0.7c0,0.2,0,0.4,0,0.6v4.7h2.7v-4.7
			c0-0.3,0-0.5,0.1-0.8c0.1-0.2,0.1-0.5,0.3-0.6c0.1-0.2,0.3-0.3,0.5-0.4c0.2-0.1,0.5-0.2,0.8-0.2c0.4,0,0.8,0.1,0.9,0.4
			c0.2,0.3,0.3,0.7,0.3,1.1v5.1h2.7v-5.2c0-0.5-0.1-1-0.2-1.5c-0.1-0.5-0.3-0.9-0.5-1.2c-0.2-0.3-0.6-0.6-1-0.8s-0.9-0.3-1.5-0.3
			c-0.7,0-1.2,0.1-1.7,0.4c-0.4,0.2-0.8,0.6-1.1,1.2c-0.2-0.5-0.6-0.9-1.1-1.2c-0.5-0.3-1-0.4-1.6-0.4c-0.3,0-0.6,0-0.9,0.1
			c-0.3,0.1-0.5,0.2-0.7,0.3c-0.2,0.1-0.4,0.3-0.6,0.5s-0.3,0.3-0.4,0.5h0v-1.2H241.5z"/>
		<path class="st2" d="M231,45.5v4.9c0,0.6,0,1.1,0.1,1.7c0.1,0.5,0.2,1,0.5,1.3c0.2,0.4,0.6,0.7,1,0.9c0.4,0.2,1,0.3,1.7,0.3
			c0.3,0,0.6,0,0.9-0.1c0.3-0.1,0.5-0.2,0.7-0.3c0.2-0.1,0.4-0.3,0.6-0.5c0.2-0.2,0.3-0.3,0.4-0.5h0v1.2h2.6v-8.8h-2.7v4.4
			c0,0.3,0,0.6-0.1,0.8c0,0.3-0.1,0.5-0.2,0.7c-0.1,0.2-0.3,0.4-0.5,0.5c-0.2,0.1-0.5,0.2-0.9,0.2c-0.4,0-0.6-0.1-0.8-0.2
			c-0.2-0.1-0.3-0.3-0.4-0.6c-0.1-0.2-0.1-0.5-0.2-0.8c0-0.3,0-0.5,0-0.8v-4.3H231z"/>
		<path class="st2" d="M229.4,49.9c0-0.7-0.1-1.3-0.3-1.9c-0.2-0.6-0.5-1.1-0.8-1.5c-0.4-0.4-0.8-0.7-1.3-0.9
			c-0.5-0.2-1.1-0.3-1.7-0.3c-0.7,0-1.3,0.1-1.9,0.3c-0.6,0.2-1.1,0.5-1.6,0.9c-0.4,0.4-0.8,0.9-1,1.5c-0.3,0.6-0.4,1.2-0.4,1.9
			c0,0.7,0.1,1.3,0.4,1.9c0.3,0.6,0.6,1.1,1,1.5c0.4,0.4,1,0.7,1.6,0.9c0.6,0.2,1.2,0.3,1.9,0.3c0.7,0,1.4-0.2,2.1-0.5
			c0.7-0.3,1.2-0.7,1.7-1.3l-1.9-1.4c-0.2,0.3-0.5,0.6-0.8,0.8s-0.7,0.3-1.1,0.3c-0.5,0-1-0.2-1.3-0.5s-0.6-0.7-0.7-1.2h6.3V49.9z
			 M223,48.9c0-0.2,0.1-0.4,0.2-0.6c0.1-0.2,0.2-0.4,0.4-0.5c0.2-0.2,0.4-0.3,0.6-0.4c0.2-0.1,0.5-0.1,0.8-0.1
			c0.5,0,0.9,0.2,1.2,0.5c0.3,0.3,0.5,0.7,0.5,1.2H223z"/>
	</g>
	<g>
		<path class="st0" d="M0.4,53.9h3.9c2.9,0,6.1,1.6,6.1,5.7c0,3.9-3.2,5.7-6.1,5.7H0.4V53.9z M2,63.8h2c2.7,0,4.7-1.6,4.7-4.3
			c0-2.8-2-4.3-4.7-4.3H2V63.8z"/>
		<path class="st0" d="M12.8,65.2H11l4.9-11.3h1.4l4.9,11.3h-1.8l-1.2-2.8h-5.4L12.8,65.2z M14.5,61h4.2l-2.1-5.3L14.5,61z"/>
		<path class="st0" d="M25.4,65.2h-1.6V53.9h3.6c2.2,0,4,0.8,4,3.1c0,1.7-1.1,2.7-2.8,3l3.2,5.2h-1.9l-2.9-5h-1.7V65.2z M25.4,58.8
			h1.8c1.5,0,2.7-0.5,2.7-1.8s-1.2-1.8-2.5-1.8h-1.9V58.8z"/>
		<path class="st0" d="M36.7,62.9L36.7,62.9l2.7-9h1.7l2.6,9h0l2.5-9H48l-3.3,11.3H43l-2.8-9.1h0l-2.8,9.1h-1.6l-3.3-11.3h1.7
			L36.7,62.9z"/>
		<path class="st0" d="M51.2,65.2h-1.6V53.9h1.6V65.2z"/>
		<path class="st0" d="M62,62.9L62,62.9l0-9.1h1.6v11.3h-2l-6-9.3h0v9.3H54V53.9H56L62,62.9z"/>
		<path class="st0" d="M80.2,63.4c-0.9,1.2-2.3,2-4.3,2c-3.5,0-6-2.5-6-6c0-3.5,2.6-5.9,6-5.9c1.6,0,3.2,0.6,4.1,1.8l-1.2,1
			C78.2,55.5,77.1,55,76,55c-2.6,0-4.3,2.1-4.3,4.5c0,2.5,1.6,4.6,4.3,4.6c1.3,0,2.4-0.5,3-1.5L80.2,63.4z"/>
		<path class="st0" d="M85.2,65.4c-2.3,0-4.1-1.7-4.1-4s1.8-4,4.1-4c2.3,0,4.1,1.6,4.1,4S87.5,65.4,85.2,65.4z M85.2,58.7
			c-1.6,0-2.5,1.3-2.5,2.7s0.9,2.8,2.5,2.8c1.6,0,2.5-1.3,2.5-2.8S86.8,58.7,85.2,58.7z"/>
		<path class="st0" d="M93,65.2h-1.5V53.1H93V65.2z"/>
		<path class="st0" d="M97.2,65.2h-1.5V53.1h1.5V65.2z"/>
		<path class="st0" d="M107,61.9h-6c0,1.3,1.1,2.3,2.5,2.3c1,0,1.8-0.5,2.2-1.2l1.1,0.8c-0.8,1.1-1.9,1.6-3.3,1.6c-2.3,0-4-1.6-4-4
			c0-2.4,1.7-4,3.9-4c2.2,0,3.6,1.5,3.6,3.9C107,61.5,107,61.7,107,61.9z M105.5,60.7c0-1.2-0.7-2.1-2.1-2.1c-1.3,0-2.3,1-2.4,2.1
			H105.5z"/>
		<path class="st0" d="M114.5,59.5c-0.3-0.5-1-0.9-1.7-0.9c-1.6,0-2.5,1.3-2.5,2.7c0,1.4,0.9,2.7,2.5,2.7c0.8,0,1.4-0.3,1.8-0.8
			l1,0.9c-0.6,0.7-1.6,1.2-2.8,1.2c-2.3,0-4.1-1.6-4.1-4c0-2.4,1.7-4,4-4c1.1,0,2.2,0.4,2.8,1.2L114.5,59.5z"/>
		<path class="st0" d="M120.9,58.8h-2v4c0,0.9,0.3,1.3,1.1,1.3c0.3,0,0.6-0.1,0.9-0.2l0,1.2c-0.4,0.1-0.8,0.2-1.3,0.2
			c-1.4,0-2.2-0.8-2.2-2.4v-4.1h-1.5v-1.2h1.5v-2.2h1.5v2.2h2V58.8z"/>
		<path class="st0" d="M123.3,55.8c-0.5,0-1-0.4-1-1c0-0.5,0.4-1,1-1c0.5,0,1,0.4,1,1C124.3,55.4,123.8,55.8,123.3,55.8z M124,65.2
			h-1.5v-7.6h1.5V65.2z"/>
		<path class="st0" d="M130.3,65.4c-2.3,0-4.1-1.7-4.1-4s1.8-4,4.1-4c2.3,0,4.1,1.6,4.1,4S132.7,65.4,130.3,65.4z M130.3,58.7
			c-1.6,0-2.5,1.3-2.5,2.7s0.9,2.8,2.5,2.8c1.6,0,2.5-1.3,2.5-2.8S132,58.7,130.3,58.7z"/>
		<path class="st0" d="M137.9,57.6c0,0.4,0.1,0.9,0.1,1.2h0c0.4-0.8,1.4-1.5,2.5-1.5c2,0,2.8,1.4,2.8,3.1v4.7h-1.5V61
			c0-1.2-0.3-2.3-1.7-2.3c-1.2,0-2,1-2,2.5v4h-1.5v-6c0-0.4,0-1.1-0.1-1.6H137.9z"/>
		<path class="st0" d="M150.1,59.5c-0.3-0.5-1-0.9-1.8-0.9c-0.7,0-1.4,0.3-1.4,1c0,0.6,0.6,0.9,1.7,1.1c1.4,0.3,2.5,0.9,2.5,2.2
			c0,1.8-1.5,2.4-3,2.4c-1.2,0-2.3-0.4-3.1-1.4l1.1-0.9c0.4,0.6,1.2,1.1,2,1.1c0.8,0,1.5-0.3,1.5-1.1c0-0.7-0.7-1-2-1.3
			c-1-0.2-2.2-0.7-2.2-2.1c0-1.6,1.4-2.3,2.9-2.3c1.1,0,2.2,0.4,2.8,1.2L150.1,59.5z"/>
	</g>
</g>
</svg>
