<svg xmlns="http://www.w3.org/2000/svg" width="182.867" height="106" viewBox="0 0 182.867 106">
  <path id="Exclusion_1" data-name="Exclusion 1" d="M127.047,106a3.827,3.827,0,0,1-3.05-1.21,5.251,5.251,0,0,1-1.043-3.512V98.917a5.2,5.2,0,0,1,1.087-3.547,3.977,3.977,0,0,1,3.123-1.215c2.564,0,3.975,1.565,3.975,4.407,0,.746-.055,1.762-.079,2.164h-5.746v.905a3.8,3.8,0,0,0,.428,2.036,1.471,1.471,0,0,0,1.343.679c1.183,0,1.776-.85,1.81-2.6l2.244.315C131.029,104.64,129.613,106,127.047,106Zm.118-10.231c-1.245,0-1.85.914-1.85,2.794v.473h3.463V98.13C128.778,96.519,128.266,95.769,127.165,95.769ZM109.5,106a1.5,1.5,0,1,1,1.495-1.495A1.5,1.5,0,0,1,109.5,106Zm8.657-.04a2.778,2.778,0,0,1-1.963-.688,4.227,4.227,0,0,1-1.107-1.987l-.236.079a10.2,10.2,0,0,1,.472,2.361h-2.282V90.536H115.4v2.991a10.235,10.235,0,0,1-.551,3.187l.236.079c.555-1.748,1.572-2.6,3.109-2.6,2.008,0,3.07,1.606,3.07,4.643v2.479C121.262,104.355,120.187,105.961,118.154,105.961Zm-.945-10.113a1.5,1.5,0,0,0-1.367.856,5.1,5.1,0,0,0-.482,2.45v1.889c0,2.106.657,3.266,1.849,3.266,1.113,0,1.653-.952,1.653-2.912V98.76C118.862,96.8,118.321,95.847,117.209,95.847Zm-27.134,9.914H81.614L9.982,12.075l-.089-.121C6.959,7.988,4.187,4.241,0,3.1V1.949H36.03V2L90.075,71.925Zm-57.7,0H5.323l-.142-1.584,1.9-.144c4.458-.335,5.229-2.734,5.894-18.334l1.569-46.411h.95a120.146,120.146,0,0,0,8.937,29.477A129.288,129.288,0,0,0,34.527,86.474C37.878,91.6,40.3,95.31,40.64,98.995a5.636,5.636,0,0,1-1.223,4.544C38.086,105.014,35.716,105.762,32.37,105.762ZM179.128,86.106a4.106,4.106,0,0,1-3.056-1.014,3.5,3.5,0,0,1-.84-2.645l2.2-.472a2.773,2.773,0,0,0,.547,2.049,1.568,1.568,0,0,0,1.185.43c.927,0,1.417-.422,1.417-1.22,0-.913-.583-1.418-1.732-2.085l-1.259-.708a3.7,3.7,0,0,1-2.2-3.148c0-1.954,1.258-3.03,3.542-3.03,2.454,0,3.7,1.112,3.7,3.306l-2.2.433a2.747,2.747,0,0,0-.349-1.6,1.286,1.286,0,0,0-1.145-.487c-.876,0-1.338.354-1.338,1.023,0,.766.432,1.281,1.652,1.967l1.22.669a3.741,3.741,0,0,1,2.4,3.424C182.867,84.973,181.5,86.106,179.128,86.106Zm-9.68,0a3.827,3.827,0,0,1-3.05-1.21,5.251,5.251,0,0,1-1.043-3.512V79.023a5.2,5.2,0,0,1,1.087-3.547,3.977,3.977,0,0,1,3.123-1.215c2.563,0,3.974,1.565,3.974,4.407,0,.76-.055,1.767-.078,2.164h-5.746v.905c0,1.853.563,2.715,1.771,2.715,1.183,0,1.775-.85,1.81-2.6l2.243.315C173.43,84.745,172.014,86.106,169.448,86.106Zm.118-10.231c-1.245,0-1.85.914-1.85,2.794v.473h3.463v-.905C171.179,76.625,170.666,75.875,169.565,75.875Zm-9.877,10.231a3.865,3.865,0,0,1-2.885-1.047,5.31,5.31,0,0,1-1.169-3.95V79.18a5.615,5.615,0,0,1,1.048-3.684,3.826,3.826,0,0,1,3.084-1.235c2.536,0,3.86,1.456,3.935,4.329l-2.361.275c-.038-2.125-.505-2.991-1.614-2.991-1.181,0-1.731.925-1.731,2.911v2.637c0,2.012.566,2.991,1.731,2.991,1.109,0,1.577-.855,1.614-2.951l2.4.315C163.668,84.65,162.3,86.106,159.689,86.106Zm-19.951,0a3.827,3.827,0,0,1-3.05-1.21,5.251,5.251,0,0,1-1.043-3.512V79.023a5.2,5.2,0,0,1,1.087-3.547,3.977,3.977,0,0,1,3.123-1.215c2.563,0,3.974,1.565,3.974,4.407,0,.706-.049,1.659-.078,2.164h-5.746v.905a3.8,3.8,0,0,0,.428,2.036,1.471,1.471,0,0,0,1.342.679c1.183,0,1.776-.85,1.811-2.6l2.243.315a3.987,3.987,0,0,1-1.19,3A4.23,4.23,0,0,1,139.738,86.106Zm.118-10.231c-1.245,0-1.85.914-1.85,2.794v.473h3.463v-.905C141.469,76.625,140.956,75.875,139.855,75.875ZM125.532,86.106c-2.716,0-4.093-1.681-4.093-5V79.18a5.615,5.615,0,0,1,1.048-3.684,3.825,3.825,0,0,1,3.084-1.235c2.535,0,3.86,1.456,3.936,4.329l-2.322.275c-.038-2.125-.505-2.991-1.614-2.991-1.181,0-1.732.925-1.732,2.911v2.637c0,2.012.566,2.991,1.732,2.991,1.109,0,1.577-.855,1.614-2.951l2.4.315C129.511,84.65,128.148,86.106,125.532,86.106Zm-9.4,0a4.093,4.093,0,0,1-3.02-.993,3.577,3.577,0,0,1-.876-2.666l2.2-.472a2.776,2.776,0,0,0,.547,2.05,1.568,1.568,0,0,0,1.184.43c.927,0,1.417-.422,1.417-1.22,0-.913-.583-1.419-1.731-2.085l-1.26-.708a3.7,3.7,0,0,1-2.2-3.148c0-1.954,1.258-3.03,3.542-3.03,2.454,0,3.7,1.112,3.7,3.306l-2.2.433a2.748,2.748,0,0,0-.349-1.6,1.286,1.286,0,0,0-1.145-.487c-.876,0-1.338.354-1.338,1.023,0,.766.433,1.281,1.653,1.967l1.22.669a3.741,3.741,0,0,1,2.4,3.424C119.865,84.973,118.5,86.106,116.127,86.106Zm32.032-.235H145.8V74.5h2.322a7.764,7.764,0,0,1-.512,2.518l.237.078c.681-1.853,1.762-2.754,3.306-2.754a2.306,2.306,0,0,1,2.518,2.636v8.893h-2.362V77.449c0-.953-.408-1.456-1.18-1.456-1.177,0-1.967,1.423-1.967,3.542V85.87Zm-14.4,0h-2.362V74.5h2.362V85.869Zm.118-12.75h-2.6V70.995h2.6v2.124Zm30.615-6.91a2.044,2.044,0,0,1-1.662-.526c-.328-.4-.386-1.036-.187-2.072l-.2-.039a3.119,3.119,0,0,1-3.187,2.636,2.406,2.406,0,0,1-2.558-2.676v-.158c0-2.418,1.664-3.282,3.462-3.856l1.85-.59V57.552c0-1.074-.413-1.574-1.3-1.574a1.248,1.248,0,0,0-.951.35,3.465,3.465,0,0,0-.5,2.483l-2.322-.275a4.22,4.22,0,0,1,.97-3.173,3.81,3.81,0,0,1,2.847-1c2.376,0,3.581,1.073,3.581,3.188v6.06c0,.756.12.866.984.905L165,66.17A2.066,2.066,0,0,1,164.489,66.209Zm-2.44-5.666h0l-1.1.354c-1.262.421-1.85,1.1-1.85,2.125v.2c0,.8.357,1.221,1.062,1.259,1.112,0,1.889-1.052,1.889-2.558V60.543ZM135.8,66.209a2.661,2.661,0,0,1-2.037-.7,3.086,3.086,0,0,1-.679-2.208V56.332h-1.417V54.6h1.417V52l2.361-.748V54.6h2.518v1.731h-2.518v6.729c0,.883.329,1.259,1.1,1.259a3.5,3.5,0,0,0,1.456-.314l-.157,1.731A4.64,4.64,0,0,1,135.8,66.209Zm-5.706,0a2.044,2.044,0,0,1-1.662-.526c-.328-.4-.386-1.036-.187-2.072l-.2-.039a3.121,3.121,0,0,1-3.188,2.636,2.484,2.484,0,0,1-1.9-.718,2.8,2.8,0,0,1-.659-1.957v-.158c0-2.418,1.664-3.282,3.463-3.856l1.85-.59V57.552c0-1.074-.413-1.574-1.3-1.574a1.248,1.248,0,0,0-.951.35,3.466,3.466,0,0,0-.5,2.483l-2.321-.275a4.219,4.219,0,0,1,.969-3.172,3.81,3.81,0,0,1,2.848-1c2.376,0,3.581,1.073,3.581,3.188v6.06c0,.756.12.866.984.905l-.315,1.652A2.066,2.066,0,0,1,130.1,66.209Zm-2.479-5.666-1.1.354c-1.262.421-1.85,1.1-1.85,2.125v.2c0,.8.357,1.221,1.062,1.259,1.112,0,1.889-1.052,1.889-2.558Zm14.521,5.588a2.306,2.306,0,0,1-2.518-2.637V54.6h2.361v8.42c0,.953.408,1.456,1.181,1.456,1.177,0,1.967-1.423,1.967-3.542V54.6h2.322V65.974h-2.322a7.784,7.784,0,0,1,.511-2.519l-.2-.078C144.763,65.23,143.681,66.131,142.138,66.131Zm-27.113-.157H112.7V54.6h2.321a7.774,7.774,0,0,1-.511,2.518l.2.078c.681-1.853,1.762-2.754,3.3-2.754a2.306,2.306,0,0,1,2.519,2.636v8.893h-2.362V57.552c0-.953-.408-1.456-1.18-1.456-1.177,0-1.968,1.423-1.968,3.542v6.336Zm54.305,0h-2.361V50.783h2.361V65.973Zm-17.275,0h-2.361V54.6h2.361a6.429,6.429,0,0,1-.511,2.518l.157.04c.86-2.071,1.66-2.752,3.424-2.912l.354,2.2c-1.492.1-2.3.382-2.774.964s-.649,1.434-.649,3.089v5.469ZM84.043,31.561A15.781,15.781,0,1,1,95.2,4.646a15.63,15.63,0,0,1,4.628,11.134A15.8,15.8,0,0,1,84.043,31.561Z" fill="#1a1a1a"/>
</svg>
